ISO-10303-21;
HEADER;
FILE_DESCRIPTION(('Open CASCADE Model'),'2;1');
FILE_NAME('Open CASCADE Shape Model','2026-09-02T22:25:06',('Author'),(
    'Open CASCADE'),'Open CASCADE STEP processor 7.9','Open CASCADE 7.9'
  ,'Unknown');
FILE_SCHEMA(('AUTOMOTIVE_DESIGN { 1 0 10303 214 1 1 1 1 }'));
ENDSEC;
DATA;
#1 = APPLICATION_PROTOCOL_DEFINITION('international standard',
  'automotive_design',2000,#2);
#2 = APPLICATION_CONTEXT(
  'core data for automotive mechanical design processes');
#3 = SHAPE_DEFINITION_REPRESENTATION(#4,#10);
#4 = PRODUCT_DEFINITION_SHAPE('','',#5);
#5 = PRODUCT_DEFINITION('design','',#6,#9);
#6 = PRODUCT_DEFINITION_FORMATION('','',#7);
#7 = PRODUCT('Open CASCADE STEP translator 7.9 2',
  'Open CASCADE STEP translator 7.9 2','',(#8));
#8 = PRODUCT_CONTEXT('',#2,'mechanical');
#9 = PRODUCT_DEFINITION_CONTEXT('part definition',#2,'design');
#10 = ADVANCED_BREP_SHAPE_REPRESENTATION('',(#11,#15),#433);
#11 = AXIS2_PLACEMENT_3D('',#12,#13,#14);
#12 = CARTESIAN_POINT('',(0.,0.,0.));
#13 = DIRECTION('',(0.,0.,1.));
#14 = DIRECTION('',(1.,0.,-0.));
#15 = MANIFOLD_SOLID_BREP('',#16);
#16 = CLOSED_SHELL('',(#17,#203,#301,#376,#419,#426));
#17 = ADVANCED_FACE('',(#18),#40,.F.);
#18 = FACE_BOUND('',#19,.F.);
#19 = EDGE_LOOP('',(#20,#99,#125,#179));
#20 = ORIENTED_EDGE('',*,*,#21,.F.);
#21 = EDGE_CURVE('',#22,#24,#26,.T.);
#22 = VERTEX_POINT('',#23);
#23 = CARTESIAN_POINT('',(1.475,0.,5.551115123126E-17));
#24 = VERTEX_POINT('',#25);
#25 = CARTESIAN_POINT('',(1.336804421705,-0.623362096537,0.549999150311)
  );
#26 = SURFACE_CURVE('',#27,(#39,#69),.PCURVE_S1.);
#27 = B_SPLINE_CURVE_WITH_KNOTS('',10,(#28,#29,#30,#31,#32,#33,#34,#35,
    #36,#37,#38),.UNSPECIFIED.,.F.,.F.,(11,11),(0.,5.872664636735),
  .PIECEWISE_BEZIER_KNOTS.);
#28 = CARTESIAN_POINT('',(1.475,5.551115123126E-17,5.551115123126E-17));
#29 = CARTESIAN_POINT('',(1.475002462371,0.86240911326,
    5.499547924036E-02));
#30 = CARTESIAN_POINT('',(0.914721109193,1.724823753403,0.110020133663)
  );
#31 = CARTESIAN_POINT('',(-0.206234759895,2.176682416965,0.16495706735)
  );
#32 = CARTESIAN_POINT('',(-1.541859657394,1.816956740617,0.220039060863)
  );
#33 = CARTESIAN_POINT('',(-2.426533422485,0.537946780707,0.274999574891)
  );
#34 = CARTESIAN_POINT('',(-2.165234589037,-0.995110540335,0.329960089874
    ));
#35 = CARTESIAN_POINT('',(-1.106864131968,-1.885574981652,0.385042082745
    ));
#36 = CARTESIAN_POINT('',(0.100098707784,-1.949805680976,0.439979016706)
  );
#37 = CARTESIAN_POINT('',(0.972332370214,-1.404969160426,0.495003671067)
  );
#38 = CARTESIAN_POINT('',(1.336804421705,-0.623362096537,0.549999150311)
  );
#39 = PCURVE('',#40,#63);
#40 = B_SPLINE_SURFACE_WITH_KNOTS('',1,10,(
    (#41,#42,#43,#44,#45,#46,#47,#48,#49,#50,#51)
    ,(#52,#53,#54,#55,#56,#57,#58,#59,#60,#61,#62
  )),.UNSPECIFIED.,.F.,.F.,.F.,(2,2),(11,11),(0.,1.175),(0.,
    5.872664636735),.PIECEWISE_BEZIER_KNOTS.);
#41 = CARTESIAN_POINT('',(1.475,5.551115123126E-17,5.551115123126E-17));
#42 = CARTESIAN_POINT('',(1.475002462371,0.86240911326,
    5.499547924036E-02));
#43 = CARTESIAN_POINT('',(0.914721109193,1.724823753403,0.110020133663)
  );
#44 = CARTESIAN_POINT('',(-0.206234759895,2.176682416965,0.16495706735)
  );
#45 = CARTESIAN_POINT('',(-1.541859657394,1.816956740617,0.220039060863)
  );
#46 = CARTESIAN_POINT('',(-2.426533422485,0.537946780707,0.274999574891)
  );
#47 = CARTESIAN_POINT('',(-2.165234589037,-0.995110540335,0.329960089874
    ));
#48 = CARTESIAN_POINT('',(-1.106864131968,-1.885574981652,0.385042082745
    ));
#49 = CARTESIAN_POINT('',(0.100098707784,-1.949805680976,0.439979016706)
  );
#50 = CARTESIAN_POINT('',(0.972332370214,-1.404969160426,0.495003671067)
  );
#51 = CARTESIAN_POINT('',(1.336804421705,-0.623362096537,0.549999150311)
  );
#52 = CARTESIAN_POINT('',(2.65,1.443289932013E-15,5.551115123126E-17));
#53 = CARTESIAN_POINT('',(2.650002462371,1.54941801744,
    5.500452075967E-02));
#54 = CARTESIAN_POINT('',(1.643403156943,3.098808812668,0.109979866379)
  );
#55 = CARTESIAN_POINT('',(-0.370535833716,3.910706231178,0.165042932467)
  );
#56 = CARTESIAN_POINT('',(-2.770103160074,3.26430711772,0.219960939534)
  );
#57 = CARTESIAN_POINT('',(-4.359548330824,0.966485935585,0.275000424579)
  );
#58 = CARTESIAN_POINT('',(-3.890077992794,-1.787777209778,0.330039910585
    ));
#59 = CARTESIAN_POINT('',(-1.988601703734,-3.387697575029,0.384957917005
    ));
#60 = CARTESIAN_POINT('',(0.179837642018,-3.503013385083,0.440020983369)
  );
#61 = CARTESIAN_POINT('',(1.746901437281,-2.524187188691,0.494996328926)
  );
#62 = CARTESIAN_POINT('',(2.401716038717,-1.119938624327,0.55000084969)
  );
#63 = DEFINITIONAL_REPRESENTATION('',(#64),#68);
#64 = LINE('',#65,#66);
#65 = CARTESIAN_POINT('',(0.,0.));
#66 = VECTOR('',#67,1.);
#67 = DIRECTION('',(0.,1.));
#68 = ( GEOMETRIC_REPRESENTATION_CONTEXT(2) 
PARAMETRIC_REPRESENTATION_CONTEXT() REPRESENTATION_CONTEXT('2D SPACE',''
  ) );
#69 = PCURVE('',#70,#93);
#70 = B_SPLINE_SURFACE_WITH_KNOTS('',1,10,(
    (#71,#72,#73,#74,#75,#76,#77,#78,#79,#80,#81)
    ,(#82,#83,#84,#85,#86,#87,#88,#89,#90,#91,#92
  )),.UNSPECIFIED.,.F.,.F.,.F.,(2,2),(11,11),(0.,0.64),(0.,
    5.872664636735),.PIECEWISE_BEZIER_KNOTS.);
#71 = CARTESIAN_POINT('',(1.475,1.665334536938E-16,0.64));
#72 = CARTESIAN_POINT('',(1.474997537629,0.86240884266,0.69499547924));
#73 = CARTESIAN_POINT('',(0.914743393604,1.724820012841,0.750020133621)
  );
#74 = CARTESIAN_POINT('',(-0.206281153279,2.176691595923,0.804957067533)
  );
#75 = CARTESIAN_POINT('',(-1.541816646022,1.816943499362,0.860039060465)
  );
#76 = CARTESIAN_POINT('',(-2.42653152243,0.537951748159,0.914999575422)
  );
#77 = CARTESIAN_POINT('',(-2.165277807811,-0.995103739164,0.969960089414
    ));
#78 = CARTESIAN_POINT('',(-1.106817511488,-1.885585086069,1.025042082995
    ));
#79 = CARTESIAN_POINT('',(0.100076867604,-1.949798429722,1.079979016631)
  );
#80 = CARTESIAN_POINT('',(0.97233610901,-1.404970605282,1.135003671074)
  );
#81 = CARTESIAN_POINT('',(1.336803582809,-0.623361705354,1.18999915031)
  );
#82 = CARTESIAN_POINT('',(1.475,0.,5.551115123126E-17));
#83 = CARTESIAN_POINT('',(1.475002462371,0.86240911326,
    5.499547924036E-02));
#84 = CARTESIAN_POINT('',(0.914721109193,1.724823753403,0.110020133663)
  );
#85 = CARTESIAN_POINT('',(-0.206234759895,2.176682416965,0.16495706735)
  );
#86 = CARTESIAN_POINT('',(-1.541859657394,1.816956740617,0.220039060863)
  );
#87 = CARTESIAN_POINT('',(-2.426533422485,0.537946780707,0.274999574891)
  );
#88 = CARTESIAN_POINT('',(-2.165234589037,-0.995110540335,0.329960089874
    ));
#89 = CARTESIAN_POINT('',(-1.106864131968,-1.885574981652,0.385042082745
    ));
#90 = CARTESIAN_POINT('',(0.100098707784,-1.949805680976,0.439979016706)
  );
#91 = CARTESIAN_POINT('',(0.972332370214,-1.404969160426,0.495003671067)
  );
#92 = CARTESIAN_POINT('',(1.336804421705,-0.623362096537,0.549999150311)
  );
#93 = DEFINITIONAL_REPRESENTATION('',(#94),#98);
#94 = LINE('',#95,#96);
#95 = CARTESIAN_POINT('',(0.64,0.));
#96 = VECTOR('',#97,1.);
#97 = DIRECTION('',(0.,1.));
#98 = ( GEOMETRIC_REPRESENTATION_CONTEXT(2) 
PARAMETRIC_REPRESENTATION_CONTEXT() REPRESENTATION_CONTEXT('2D SPACE',''
  ) );
#99 = ORIENTED_EDGE('',*,*,#100,.T.);
#100 = EDGE_CURVE('',#22,#101,#103,.T.);
#101 = VERTEX_POINT('',#102);
#102 = CARTESIAN_POINT('',(2.65,-4.440892098501E-16,5.551115123126E-17)
  );
#103 = SURFACE_CURVE('',#104,(#107,#114),.PCURVE_S1.);
#104 = B_SPLINE_CURVE_WITH_KNOTS('',1,(#105,#106),.UNSPECIFIED.,.F.,.F.,
  (2,2),(0.,1.175),.PIECEWISE_BEZIER_KNOTS.);
#105 = CARTESIAN_POINT('',(1.475,5.551115123126E-17,5.551115123126E-17)
  );
#106 = CARTESIAN_POINT('',(2.65,1.443289932013E-15,5.551115123126E-17));
#107 = PCURVE('',#40,#108);
#108 = DEFINITIONAL_REPRESENTATION('',(#109),#113);
#109 = LINE('',#110,#111);
#110 = CARTESIAN_POINT('',(0.,0.));
#111 = VECTOR('',#112,1.);
#112 = DIRECTION('',(1.,0.));
#113 = ( GEOMETRIC_REPRESENTATION_CONTEXT(2) 
PARAMETRIC_REPRESENTATION_CONTEXT() REPRESENTATION_CONTEXT('2D SPACE',''
  ) );
#114 = PCURVE('',#115,#120);
#115 = PLANE('',#116);
#116 = AXIS2_PLACEMENT_3D('',#117,#118,#119);
#117 = CARTESIAN_POINT('',(2.0625,2.785879883073E-16,0.32));
#118 = DIRECTION('',(-0.,-1.,-4.008262577068E-16));
#119 = DIRECTION('',(0.,4.008262577068E-16,-1.));
#120 = DEFINITIONAL_REPRESENTATION('',(#121),#124);
#121 = B_SPLINE_CURVE_WITH_KNOTS('',1,(#122,#123),.UNSPECIFIED.,.F.,.F.,
  (2,2),(0.,1.175),.PIECEWISE_BEZIER_KNOTS.);
#122 = CARTESIAN_POINT('',(0.32,-0.5875));
#123 = CARTESIAN_POINT('',(0.32,0.5875));
#124 = ( GEOMETRIC_REPRESENTATION_CONTEXT(2) 
PARAMETRIC_REPRESENTATION_CONTEXT() REPRESENTATION_CONTEXT('2D SPACE',''
  ) );
#125 = ORIENTED_EDGE('',*,*,#126,.T.);
#126 = EDGE_CURVE('',#101,#127,#129,.T.);
#127 = VERTEX_POINT('',#128);
#128 = CARTESIAN_POINT('',(2.401716038717,-1.119938624327,0.55000084969)
  );
#129 = SURFACE_CURVE('',#130,(#142,#149),.PCURVE_S1.);
#130 = B_SPLINE_CURVE_WITH_KNOTS('',10,(#131,#132,#133,#134,#135,#136,
    #137,#138,#139,#140,#141),.UNSPECIFIED.,.F.,.F.,(11,11),(0.,
    5.872664636735),.PIECEWISE_BEZIER_KNOTS.);
#131 = CARTESIAN_POINT('',(2.65,1.443289932013E-15,5.551115123126E-17));
#132 = CARTESIAN_POINT('',(2.650002462371,1.54941801744,
    5.500452075967E-02));
#133 = CARTESIAN_POINT('',(1.643403156943,3.098808812668,0.109979866379)
  );
#134 = CARTESIAN_POINT('',(-0.370535833716,3.910706231178,0.165042932467
    ));
#135 = CARTESIAN_POINT('',(-2.770103160074,3.26430711772,0.219960939534)
  );
#136 = CARTESIAN_POINT('',(-4.359548330824,0.966485935585,0.275000424579
    ));
#137 = CARTESIAN_POINT('',(-3.890077992794,-1.787777209778,
    0.330039910585));
#138 = CARTESIAN_POINT('',(-1.988601703734,-3.387697575029,
    0.384957917005));
#139 = CARTESIAN_POINT('',(0.179837642018,-3.503013385083,0.440020983369
    ));
#140 = CARTESIAN_POINT('',(1.746901437281,-2.524187188691,0.494996328926
    ));
#141 = CARTESIAN_POINT('',(2.401716038717,-1.119938624327,0.55000084969)
  );
#142 = PCURVE('',#40,#143);
#143 = DEFINITIONAL_REPRESENTATION('',(#144),#148);
#144 = LINE('',#145,#146);
#145 = CARTESIAN_POINT('',(1.175,0.));
#146 = VECTOR('',#147,1.);
#147 = DIRECTION('',(0.,1.));
#148 = ( GEOMETRIC_REPRESENTATION_CONTEXT(2) 
PARAMETRIC_REPRESENTATION_CONTEXT() REPRESENTATION_CONTEXT('2D SPACE',''
  ) );
#149 = PCURVE('',#150,#173);
#150 = B_SPLINE_SURFACE_WITH_KNOTS('',1,10,(
    (#151,#152,#153,#154,#155,#156,#157,#158,#159,#160,#161)
    ,(#162,#163,#164,#165,#166,#167,#168,#169,#170,#171,#172
  )),.UNSPECIFIED.,.F.,.F.,.F.,(2,2),(11,11),(0.,0.64),(0.,
    5.872664636735),.PIECEWISE_BEZIER_KNOTS.);
#151 = CARTESIAN_POINT('',(2.65,-4.440892098501E-16,5.551115123126E-17)
  );
#152 = CARTESIAN_POINT('',(2.650002462371,1.54941801744,
    5.500452075967E-02));
#153 = CARTESIAN_POINT('',(1.643403156943,3.098808812668,0.109979866379)
  );
#154 = CARTESIAN_POINT('',(-0.370535833716,3.910706231178,0.165042932467
    ));
#155 = CARTESIAN_POINT('',(-2.770103160074,3.26430711772,0.219960939534)
  );
#156 = CARTESIAN_POINT('',(-4.359548330824,0.966485935585,0.275000424579
    ));
#157 = CARTESIAN_POINT('',(-3.890077992794,-1.787777209778,
    0.330039910585));
#158 = CARTESIAN_POINT('',(-1.988601703734,-3.387697575029,
    0.384957917005));
#159 = CARTESIAN_POINT('',(0.179837642018,-3.503013385083,0.440020983369
    ));
#160 = CARTESIAN_POINT('',(1.746901437281,-2.524187188691,0.494996328926
    ));
#161 = CARTESIAN_POINT('',(2.401716038717,-1.119938624327,0.55000084969)
  );
#162 = CARTESIAN_POINT('',(2.65,-3.330669073875E-16,0.64));
#163 = CARTESIAN_POINT('',(2.649997537629,1.54941774684,0.69500452076));
#164 = CARTESIAN_POINT('',(1.643425441353,3.098805072105,0.749979866337)
  );
#165 = CARTESIAN_POINT('',(-0.370582227101,3.910715410136,0.80504293265)
  );
#166 = CARTESIAN_POINT('',(-2.770060148702,3.264293876465,0.859960939137
    ));
#167 = CARTESIAN_POINT('',(-4.359546430768,0.966490903036,0.91500042511)
  );
#168 = CARTESIAN_POINT('',(-3.890121211568,-1.787770408607,
    0.970039910125));
#169 = CARTESIAN_POINT('',(-1.988555083254,-3.387707679446,
    1.024957917255));
#170 = CARTESIAN_POINT('',(0.179815801838,-3.503006133829,1.080020983294
    ));
#171 = CARTESIAN_POINT('',(1.746905176077,-2.524188633547,1.134996328933
    ));
#172 = CARTESIAN_POINT('',(2.401715199821,-1.119938233143,1.190000849689
    ));
#173 = DEFINITIONAL_REPRESENTATION('',(#174),#178);
#174 = LINE('',#175,#176);
#175 = CARTESIAN_POINT('',(0.,0.));
#176 = VECTOR('',#177,1.);
#177 = DIRECTION('',(0.,1.));
#178 = ( GEOMETRIC_REPRESENTATION_CONTEXT(2) 
PARAMETRIC_REPRESENTATION_CONTEXT() REPRESENTATION_CONTEXT('2D SPACE',''
  ) );
#179 = ORIENTED_EDGE('',*,*,#180,.F.);
#180 = EDGE_CURVE('',#24,#127,#181,.T.);
#181 = SURFACE_CURVE('',#182,(#185,#192),.PCURVE_S1.);
#182 = B_SPLINE_CURVE_WITH_KNOTS('',1,(#183,#184),.UNSPECIFIED.,.F.,.F.,
  (2,2),(0.,1.175),.PIECEWISE_BEZIER_KNOTS.);
#183 = CARTESIAN_POINT('',(1.336804421705,-0.623362096537,0.549999150311
    ));
#184 = CARTESIAN_POINT('',(2.401716038717,-1.119938624327,0.55000084969)
  );
#185 = PCURVE('',#40,#186);
#186 = DEFINITIONAL_REPRESENTATION('',(#187),#191);
#187 = LINE('',#188,#189);
#188 = CARTESIAN_POINT('',(0.,5.872664636735));
#189 = VECTOR('',#190,1.);
#190 = DIRECTION('',(1.,0.));
#191 = ( GEOMETRIC_REPRESENTATION_CONTEXT(2) 
PARAMETRIC_REPRESENTATION_CONTEXT() REPRESENTATION_CONTEXT('2D SPACE',''
  ) );
#192 = PCURVE('',#193,#198);
#193 = PLANE('',#194);
#194 = AXIS2_PLACEMENT_3D('',#195,#196,#197);
#195 = CARTESIAN_POINT('',(1.869259810763,-0.87165016484,0.87));
#196 = DIRECTION('',(-0.422618321523,-0.90630775916,-4.148763925545E-14)
  );
#197 = DIRECTION('',(-0.90630775916,0.422618321523,1.066974869009E-30));
#198 = DEFINITIONAL_REPRESENTATION('',(#199),#202);
#199 = B_SPLINE_CURVE_WITH_KNOTS('',1,(#200,#201),.UNSPECIFIED.,.F.,.F.,
  (2,2),(0.,1.175),.PIECEWISE_BEZIER_KNOTS.);
#200 = CARTESIAN_POINT('',(0.58749953719,0.320000849689));
#201 = CARTESIAN_POINT('',(-0.587500462809,0.31999915031));
#202 = ( GEOMETRIC_REPRESENTATION_CONTEXT(2) 
PARAMETRIC_REPRESENTATION_CONTEXT() REPRESENTATION_CONTEXT('2D SPACE',''
  ) );
#203 = ADVANCED_FACE('',(#204),#150,.F.);
#204 = FACE_BOUND('',#205,.F.);
#205 = EDGE_LOOP('',(#206,#207,#228,#282));
#206 = ORIENTED_EDGE('',*,*,#126,.F.);
#207 = ORIENTED_EDGE('',*,*,#208,.T.);
#208 = EDGE_CURVE('',#101,#209,#211,.T.);
#209 = VERTEX_POINT('',#210);
#210 = CARTESIAN_POINT('',(2.65,-3.330669073875E-16,0.64));
#211 = SURFACE_CURVE('',#212,(#215,#222),.PCURVE_S1.);
#212 = B_SPLINE_CURVE_WITH_KNOTS('',1,(#213,#214),.UNSPECIFIED.,.F.,.F.,
  (2,2),(0.,0.64),.PIECEWISE_BEZIER_KNOTS.);
#213 = CARTESIAN_POINT('',(2.65,-4.440892098501E-16,5.551115123126E-17)
  );
#214 = CARTESIAN_POINT('',(2.65,-3.330669073875E-16,0.64));
#215 = PCURVE('',#150,#216);
#216 = DEFINITIONAL_REPRESENTATION('',(#217),#221);
#217 = LINE('',#218,#219);
#218 = CARTESIAN_POINT('',(0.,0.));
#219 = VECTOR('',#220,1.);
#220 = DIRECTION('',(1.,0.));
#221 = ( GEOMETRIC_REPRESENTATION_CONTEXT(2) 
PARAMETRIC_REPRESENTATION_CONTEXT() REPRESENTATION_CONTEXT('2D SPACE',''
  ) );
#222 = PCURVE('',#115,#223);
#223 = DEFINITIONAL_REPRESENTATION('',(#224),#227);
#224 = B_SPLINE_CURVE_WITH_KNOTS('',1,(#225,#226),.UNSPECIFIED.,.F.,.F.,
  (2,2),(0.,0.64),.PIECEWISE_BEZIER_KNOTS.);
#225 = CARTESIAN_POINT('',(0.32,0.5875));
#226 = CARTESIAN_POINT('',(-0.32,0.5875));
#227 = ( GEOMETRIC_REPRESENTATION_CONTEXT(2) 
PARAMETRIC_REPRESENTATION_CONTEXT() REPRESENTATION_CONTEXT('2D SPACE',''
  ) );
#228 = ORIENTED_EDGE('',*,*,#229,.T.);
#229 = EDGE_CURVE('',#209,#230,#232,.T.);
#230 = VERTEX_POINT('',#231);
#231 = CARTESIAN_POINT('',(2.401715199821,-1.119938233143,1.190000849689
    ));
#232 = SURFACE_CURVE('',#233,(#245,#252),.PCURVE_S1.);
#233 = B_SPLINE_CURVE_WITH_KNOTS('',10,(#234,#235,#236,#237,#238,#239,
    #240,#241,#242,#243,#244),.UNSPECIFIED.,.F.,.F.,(11,11),(0.,
    5.872664636735),.PIECEWISE_BEZIER_KNOTS.);
#234 = CARTESIAN_POINT('',(2.65,-3.330669073875E-16,0.64));
#235 = CARTESIAN_POINT('',(2.649997537629,1.54941774684,0.69500452076));
#236 = CARTESIAN_POINT('',(1.643425441353,3.098805072105,0.749979866337)
  );
#237 = CARTESIAN_POINT('',(-0.370582227101,3.910715410136,0.80504293265)
  );
#238 = CARTESIAN_POINT('',(-2.770060148702,3.264293876465,0.859960939137
    ));
#239 = CARTESIAN_POINT('',(-4.359546430768,0.966490903036,0.91500042511)
  );
#240 = CARTESIAN_POINT('',(-3.890121211568,-1.787770408607,
    0.970039910125));
#241 = CARTESIAN_POINT('',(-1.988555083254,-3.387707679446,
    1.024957917255));
#242 = CARTESIAN_POINT('',(0.179815801838,-3.503006133829,1.080020983294
    ));
#243 = CARTESIAN_POINT('',(1.746905176077,-2.524188633547,1.134996328933
    ));
#244 = CARTESIAN_POINT('',(2.401715199821,-1.119938233143,1.190000849689
    ));
#245 = PCURVE('',#150,#246);
#246 = DEFINITIONAL_REPRESENTATION('',(#247),#251);
#247 = LINE('',#248,#249);
#248 = CARTESIAN_POINT('',(0.64,0.));
#249 = VECTOR('',#250,1.);
#250 = DIRECTION('',(0.,1.));
#251 = ( GEOMETRIC_REPRESENTATION_CONTEXT(2) 
PARAMETRIC_REPRESENTATION_CONTEXT() REPRESENTATION_CONTEXT('2D SPACE',''
  ) );
#252 = PCURVE('',#253,#276);
#253 = B_SPLINE_SURFACE_WITH_KNOTS('',1,10,(
    (#254,#255,#256,#257,#258,#259,#260,#261,#262,#263,#264)
    ,(#265,#266,#267,#268,#269,#270,#271,#272,#273,#274,#275
  )),.UNSPECIFIED.,.F.,.F.,.F.,(2,2),(11,11),(0.,1.175),(0.,
    5.872664636735),.PIECEWISE_BEZIER_KNOTS.);
#254 = CARTESIAN_POINT('',(2.65,-3.330669073875E-16,0.64));
#255 = CARTESIAN_POINT('',(2.649997537629,1.54941774684,0.69500452076));
#256 = CARTESIAN_POINT('',(1.643425441353,3.098805072105,0.749979866337)
  );
#257 = CARTESIAN_POINT('',(-0.370582227101,3.910715410136,0.80504293265)
  );
#258 = CARTESIAN_POINT('',(-2.770060148702,3.264293876465,0.859960939137
    ));
#259 = CARTESIAN_POINT('',(-4.359546430768,0.966490903036,0.91500042511)
  );
#260 = CARTESIAN_POINT('',(-3.890121211568,-1.787770408607,
    0.970039910125));
#261 = CARTESIAN_POINT('',(-1.988555083254,-3.387707679446,
    1.024957917255));
#262 = CARTESIAN_POINT('',(0.179815801838,-3.503006133829,1.080020983294
    ));
#263 = CARTESIAN_POINT('',(1.746905176077,-2.524188633547,1.134996328933
    ));
#264 = CARTESIAN_POINT('',(2.401715199821,-1.119938233143,1.190000849689
    ));
#265 = CARTESIAN_POINT('',(1.475,8.881784197001E-16,0.64));
#266 = CARTESIAN_POINT('',(1.474997537629,0.86240884266,0.69499547924));
#267 = CARTESIAN_POINT('',(0.914743393604,1.724820012841,0.750020133621)
  );
#268 = CARTESIAN_POINT('',(-0.206281153279,2.176691595923,0.804957067533
    ));
#269 = CARTESIAN_POINT('',(-1.541816646022,1.816943499362,0.860039060465
    ));
#270 = CARTESIAN_POINT('',(-2.426531522429,0.537951748159,0.914999575422
    ));
#271 = CARTESIAN_POINT('',(-2.165277807811,-0.995103739164,
    0.969960089414));
#272 = CARTESIAN_POINT('',(-1.106817511488,-1.885585086068,
    1.025042082995));
#273 = CARTESIAN_POINT('',(0.100076867604,-1.949798429722,1.079979016631
    ));
#274 = CARTESIAN_POINT('',(0.97233610901,-1.404970605282,1.135003671074)
  );
#275 = CARTESIAN_POINT('',(1.336803582809,-0.623361705354,1.18999915031)
  );
#276 = DEFINITIONAL_REPRESENTATION('',(#277),#281);
#277 = LINE('',#278,#279);
#278 = CARTESIAN_POINT('',(0.,0.));
#279 = VECTOR('',#280,1.);
#280 = DIRECTION('',(0.,1.));
#281 = ( GEOMETRIC_REPRESENTATION_CONTEXT(2) 
PARAMETRIC_REPRESENTATION_CONTEXT() REPRESENTATION_CONTEXT('2D SPACE',''
  ) );
#282 = ORIENTED_EDGE('',*,*,#283,.F.);
#283 = EDGE_CURVE('',#127,#230,#284,.T.);
#284 = SURFACE_CURVE('',#285,(#288,#295),.PCURVE_S1.);
#285 = B_SPLINE_CURVE_WITH_KNOTS('',1,(#286,#287),.UNSPECIFIED.,.F.,.F.,
  (2,2),(0.,0.64),.PIECEWISE_BEZIER_KNOTS.);
#286 = CARTESIAN_POINT('',(2.401716038717,-1.119938624327,0.55000084969)
  );
#287 = CARTESIAN_POINT('',(2.401715199821,-1.119938233143,1.190000849689
    ));
#288 = PCURVE('',#150,#289);
#289 = DEFINITIONAL_REPRESENTATION('',(#290),#294);
#290 = LINE('',#291,#292);
#291 = CARTESIAN_POINT('',(0.,5.872664636735));
#292 = VECTOR('',#293,1.);
#293 = DIRECTION('',(1.,0.));
#294 = ( GEOMETRIC_REPRESENTATION_CONTEXT(2) 
PARAMETRIC_REPRESENTATION_CONTEXT() REPRESENTATION_CONTEXT('2D SPACE',''
  ) );
#295 = PCURVE('',#193,#296);
#296 = DEFINITIONAL_REPRESENTATION('',(#297),#300);
#297 = B_SPLINE_CURVE_WITH_KNOTS('',1,(#298,#299),.UNSPECIFIED.,.F.,.F.,
  (2,2),(0.,0.64),.PIECEWISE_BEZIER_KNOTS.);
#298 = CARTESIAN_POINT('',(-0.587500462809,0.31999915031));
#299 = CARTESIAN_POINT('',(-0.58749953719,-0.320000849689));
#300 = ( GEOMETRIC_REPRESENTATION_CONTEXT(2) 
PARAMETRIC_REPRESENTATION_CONTEXT() REPRESENTATION_CONTEXT('2D SPACE',''
  ) );
#301 = ADVANCED_FACE('',(#302),#253,.F.);
#302 = FACE_BOUND('',#303,.F.);
#303 = EDGE_LOOP('',(#304,#305,#326,#357));
#304 = ORIENTED_EDGE('',*,*,#229,.F.);
#305 = ORIENTED_EDGE('',*,*,#306,.T.);
#306 = EDGE_CURVE('',#209,#307,#309,.T.);
#307 = VERTEX_POINT('',#308);
#308 = CARTESIAN_POINT('',(1.475,1.665334536938E-16,0.64));
#309 = SURFACE_CURVE('',#310,(#313,#320),.PCURVE_S1.);
#310 = B_SPLINE_CURVE_WITH_KNOTS('',1,(#311,#312),.UNSPECIFIED.,.F.,.F.,
  (2,2),(0.,1.175),.PIECEWISE_BEZIER_KNOTS.);
#311 = CARTESIAN_POINT('',(2.65,-3.330669073875E-16,0.64));
#312 = CARTESIAN_POINT('',(1.475,8.881784197001E-16,0.64));
#313 = PCURVE('',#253,#314);
#314 = DEFINITIONAL_REPRESENTATION('',(#315),#319);
#315 = LINE('',#316,#317);
#316 = CARTESIAN_POINT('',(0.,0.));
#317 = VECTOR('',#318,1.);
#318 = DIRECTION('',(1.,0.));
#319 = ( GEOMETRIC_REPRESENTATION_CONTEXT(2) 
PARAMETRIC_REPRESENTATION_CONTEXT() REPRESENTATION_CONTEXT('2D SPACE',''
  ) );
#320 = PCURVE('',#115,#321);
#321 = DEFINITIONAL_REPRESENTATION('',(#322),#325);
#322 = B_SPLINE_CURVE_WITH_KNOTS('',1,(#323,#324),.UNSPECIFIED.,.F.,.F.,
  (2,2),(0.,1.175),.PIECEWISE_BEZIER_KNOTS.);
#323 = CARTESIAN_POINT('',(-0.32,0.5875));
#324 = CARTESIAN_POINT('',(-0.32,-0.5875));
#325 = ( GEOMETRIC_REPRESENTATION_CONTEXT(2) 
PARAMETRIC_REPRESENTATION_CONTEXT() REPRESENTATION_CONTEXT('2D SPACE',''
  ) );
#326 = ORIENTED_EDGE('',*,*,#327,.T.);
#327 = EDGE_CURVE('',#307,#328,#330,.T.);
#328 = VERTEX_POINT('',#329);
#329 = CARTESIAN_POINT('',(1.336803582809,-0.623361705354,1.18999915031)
  );
#330 = SURFACE_CURVE('',#331,(#343,#350),.PCURVE_S1.);
#331 = B_SPLINE_CURVE_WITH_KNOTS('',10,(#332,#333,#334,#335,#336,#337,
    #338,#339,#340,#341,#342),.UNSPECIFIED.,.F.,.F.,(11,11),(0.,
    5.872664636735),.PIECEWISE_BEZIER_KNOTS.);
#332 = CARTESIAN_POINT('',(1.475,8.881784197001E-16,0.64));
#333 = CARTESIAN_POINT('',(1.474997537629,0.86240884266,0.69499547924));
#334 = CARTESIAN_POINT('',(0.914743393604,1.724820012841,0.750020133621)
  );
#335 = CARTESIAN_POINT('',(-0.206281153279,2.176691595923,0.804957067533
    ));
#336 = CARTESIAN_POINT('',(-1.541816646022,1.816943499362,0.860039060465
    ));
#337 = CARTESIAN_POINT('',(-2.426531522429,0.537951748159,0.914999575422
    ));
#338 = CARTESIAN_POINT('',(-2.165277807811,-0.995103739164,
    0.969960089414));
#339 = CARTESIAN_POINT('',(-1.106817511488,-1.885585086068,
    1.025042082995));
#340 = CARTESIAN_POINT('',(0.100076867604,-1.949798429722,1.079979016631
    ));
#341 = CARTESIAN_POINT('',(0.97233610901,-1.404970605282,1.135003671074)
  );
#342 = CARTESIAN_POINT('',(1.336803582809,-0.623361705354,1.18999915031)
  );
#343 = PCURVE('',#253,#344);
#344 = DEFINITIONAL_REPRESENTATION('',(#345),#349);
#345 = LINE('',#346,#347);
#346 = CARTESIAN_POINT('',(1.175,0.));
#347 = VECTOR('',#348,1.);
#348 = DIRECTION('',(0.,1.));
#349 = ( GEOMETRIC_REPRESENTATION_CONTEXT(2) 
PARAMETRIC_REPRESENTATION_CONTEXT() REPRESENTATION_CONTEXT('2D SPACE',''
  ) );
#350 = PCURVE('',#70,#351);
#351 = DEFINITIONAL_REPRESENTATION('',(#352),#356);
#352 = LINE('',#353,#354);
#353 = CARTESIAN_POINT('',(0.,0.));
#354 = VECTOR('',#355,1.);
#355 = DIRECTION('',(0.,1.));
#356 = ( GEOMETRIC_REPRESENTATION_CONTEXT(2) 
PARAMETRIC_REPRESENTATION_CONTEXT() REPRESENTATION_CONTEXT('2D SPACE',''
  ) );
#357 = ORIENTED_EDGE('',*,*,#358,.F.);
#358 = EDGE_CURVE('',#230,#328,#359,.T.);
#359 = SURFACE_CURVE('',#360,(#363,#370),.PCURVE_S1.);
#360 = B_SPLINE_CURVE_WITH_KNOTS('',1,(#361,#362),.UNSPECIFIED.,.F.,.F.,
  (2,2),(0.,1.175),.PIECEWISE_BEZIER_KNOTS.);
#361 = CARTESIAN_POINT('',(2.401715199821,-1.119938233143,1.190000849689
    ));
#362 = CARTESIAN_POINT('',(1.336803582809,-0.623361705354,1.18999915031)
  );
#363 = PCURVE('',#253,#364);
#364 = DEFINITIONAL_REPRESENTATION('',(#365),#369);
#365 = LINE('',#366,#367);
#366 = CARTESIAN_POINT('',(0.,5.872664636735));
#367 = VECTOR('',#368,1.);
#368 = DIRECTION('',(1.,0.));
#369 = ( GEOMETRIC_REPRESENTATION_CONTEXT(2) 
PARAMETRIC_REPRESENTATION_CONTEXT() REPRESENTATION_CONTEXT('2D SPACE',''
  ) );
#370 = PCURVE('',#193,#371);
#371 = DEFINITIONAL_REPRESENTATION('',(#372),#375);
#372 = B_SPLINE_CURVE_WITH_KNOTS('',1,(#373,#374),.UNSPECIFIED.,.F.,.F.,
  (2,2),(0.,1.175),.PIECEWISE_BEZIER_KNOTS.);
#373 = CARTESIAN_POINT('',(-0.58749953719,-0.320000849689));
#374 = CARTESIAN_POINT('',(0.587500462809,-0.31999915031));
#375 = ( GEOMETRIC_REPRESENTATION_CONTEXT(2) 
PARAMETRIC_REPRESENTATION_CONTEXT() REPRESENTATION_CONTEXT('2D SPACE',''
  ) );
#376 = ADVANCED_FACE('',(#377),#70,.F.);
#377 = FACE_BOUND('',#378,.F.);
#378 = EDGE_LOOP('',(#379,#380,#399,#400));
#379 = ORIENTED_EDGE('',*,*,#327,.F.);
#380 = ORIENTED_EDGE('',*,*,#381,.T.);
#381 = EDGE_CURVE('',#307,#22,#382,.T.);
#382 = SURFACE_CURVE('',#383,(#386,#393),.PCURVE_S1.);
#383 = B_SPLINE_CURVE_WITH_KNOTS('',1,(#384,#385),.UNSPECIFIED.,.F.,.F.,
  (2,2),(0.,0.64),.PIECEWISE_BEZIER_KNOTS.);
#384 = CARTESIAN_POINT('',(1.475,1.665334536938E-16,0.64));
#385 = CARTESIAN_POINT('',(1.475,0.,5.551115123126E-17));
#386 = PCURVE('',#70,#387);
#387 = DEFINITIONAL_REPRESENTATION('',(#388),#392);
#388 = LINE('',#389,#390);
#389 = CARTESIAN_POINT('',(0.,0.));
#390 = VECTOR('',#391,1.);
#391 = DIRECTION('',(1.,0.));
#392 = ( GEOMETRIC_REPRESENTATION_CONTEXT(2) 
PARAMETRIC_REPRESENTATION_CONTEXT() REPRESENTATION_CONTEXT('2D SPACE',''
  ) );
#393 = PCURVE('',#115,#394);
#394 = DEFINITIONAL_REPRESENTATION('',(#395),#398);
#395 = B_SPLINE_CURVE_WITH_KNOTS('',1,(#396,#397),.UNSPECIFIED.,.F.,.F.,
  (2,2),(0.,0.64),.PIECEWISE_BEZIER_KNOTS.);
#396 = CARTESIAN_POINT('',(-0.32,-0.5875));
#397 = CARTESIAN_POINT('',(0.32,-0.5875));
#398 = ( GEOMETRIC_REPRESENTATION_CONTEXT(2) 
PARAMETRIC_REPRESENTATION_CONTEXT() REPRESENTATION_CONTEXT('2D SPACE',''
  ) );
#399 = ORIENTED_EDGE('',*,*,#21,.T.);
#400 = ORIENTED_EDGE('',*,*,#401,.F.);
#401 = EDGE_CURVE('',#328,#24,#402,.T.);
#402 = SURFACE_CURVE('',#403,(#406,#413),.PCURVE_S1.);
#403 = B_SPLINE_CURVE_WITH_KNOTS('',1,(#404,#405),.UNSPECIFIED.,.F.,.F.,
  (2,2),(0.,0.64),.PIECEWISE_BEZIER_KNOTS.);
#404 = CARTESIAN_POINT('',(1.336803582809,-0.623361705354,1.18999915031)
  );
#405 = CARTESIAN_POINT('',(1.336804421705,-0.623362096537,0.549999150311
    ));
#406 = PCURVE('',#70,#407);
#407 = DEFINITIONAL_REPRESENTATION('',(#408),#412);
#408 = LINE('',#409,#410);
#409 = CARTESIAN_POINT('',(0.,5.872664636735));
#410 = VECTOR('',#411,1.);
#411 = DIRECTION('',(1.,0.));
#412 = ( GEOMETRIC_REPRESENTATION_CONTEXT(2) 
PARAMETRIC_REPRESENTATION_CONTEXT() REPRESENTATION_CONTEXT('2D SPACE',''
  ) );
#413 = PCURVE('',#193,#414);
#414 = DEFINITIONAL_REPRESENTATION('',(#415),#418);
#415 = B_SPLINE_CURVE_WITH_KNOTS('',1,(#416,#417),.UNSPECIFIED.,.F.,.F.,
  (2,2),(0.,0.64),.PIECEWISE_BEZIER_KNOTS.);
#416 = CARTESIAN_POINT('',(0.587500462809,-0.31999915031));
#417 = CARTESIAN_POINT('',(0.58749953719,0.320000849689));
#418 = ( GEOMETRIC_REPRESENTATION_CONTEXT(2) 
PARAMETRIC_REPRESENTATION_CONTEXT() REPRESENTATION_CONTEXT('2D SPACE',''
  ) );
#419 = ADVANCED_FACE('',(#420),#115,.T.);
#420 = FACE_BOUND('',#421,.T.);
#421 = EDGE_LOOP('',(#422,#423,#424,#425));
#422 = ORIENTED_EDGE('',*,*,#100,.T.);
#423 = ORIENTED_EDGE('',*,*,#208,.T.);
#424 = ORIENTED_EDGE('',*,*,#306,.T.);
#425 = ORIENTED_EDGE('',*,*,#381,.T.);
#426 = ADVANCED_FACE('',(#427),#193,.F.);
#427 = FACE_BOUND('',#428,.F.);
#428 = EDGE_LOOP('',(#429,#430,#431,#432));
#429 = ORIENTED_EDGE('',*,*,#180,.T.);
#430 = ORIENTED_EDGE('',*,*,#283,.T.);
#431 = ORIENTED_EDGE('',*,*,#358,.T.);
#432 = ORIENTED_EDGE('',*,*,#401,.T.);
#433 = ( GEOMETRIC_REPRESENTATION_CONTEXT(3) 
GLOBAL_UNCERTAINTY_ASSIGNED_CONTEXT((#437)) GLOBAL_UNIT_ASSIGNED_CONTEXT
((#434,#435,#436)) REPRESENTATION_CONTEXT('Context #1',
  '3D Context with UNIT and UNCERTAINTY') );
#434 = ( LENGTH_UNIT() NAMED_UNIT(*) SI_UNIT(.MILLI.,.METRE.) );
#435 = ( NAMED_UNIT(*) PLANE_ANGLE_UNIT() SI_UNIT($,.RADIAN.) );
#436 = ( NAMED_UNIT(*) SI_UNIT($,.STERADIAN.) SOLID_ANGLE_UNIT() );
#437 = UNCERTAINTY_MEASURE_WITH_UNIT(LENGTH_MEASURE(2.E-05),#434,
  'distance_accuracy_value','confusion accuracy');
#438 = PRODUCT_RELATED_PRODUCT_CATEGORY('part',$,(#7));
ENDSEC;
END-ISO-10303-21;
